<svg xmlns="http://www.w3.org/2000/svg" xmlns:xlink="http://www.w3.org/1999/xlink">
	<def>
		<symbol id="youtube" viewBox="0 0 1000 1000">
			<path d="M980,304.1c0,0-9.6-67.6-39-97.2c-37.3-39-79.1-39.2-98.2-41.5c-137-10-342.8-10-342.8-10h-0.4c0,0-205.8,0-342.8,10c-19.1,2.3-60.9,2.5-98.2,41.5c-29.5,29.7-38.9,97.2-38.9,97.2S10,383.3,10,462.8V537c0,79.2,9.8,158.7,9.8,158.7s9.6,67.6,38.9,97.2c37.3,39,86.3,37.7,108.2,41.9c78.5,7.5,333.2,9.8,333.2,9.8s206-0.4,343-10.2c19.1-2.3,60.9-2.5,98.2-41.5c29.5-29.7,39-97.2,39-97.2s9.8-79.2,9.8-158.7v-74.3C989.8,383.6,980,304.1,980,304.1L980,304.1z M398.5,627.2V351.7l264.7,138.2L398.5,627.2L398.5,627.2z"/>
		</symbol>
		<symbol id="twitter" viewBox="0 0 24 24">
			<path d="m21.534 7.113c.976-.693 1.797-1.558 2.466-2.554v-.001c-.893.391-1.843.651-2.835.777 1.02-.609 1.799-1.566 2.165-2.719-.951.567-2.001.967-3.12 1.191-.903-.962-2.19-1.557-3.594-1.557-2.724 0-4.917 2.211-4.917 4.921 0 .39.033.765.114 1.122-4.09-.2-7.71-2.16-10.142-5.147-.424.737-.674 1.58-.674 2.487 0 1.704.877 3.214 2.186 4.089-.791-.015-1.566-.245-2.223-.606v.054c0 2.391 1.705 4.377 3.942 4.835-.401.11-.837.162-1.29.162-.315 0-.633-.018-.931-.084.637 1.948 2.447 3.381 4.597 3.428-1.674 1.309-3.8 2.098-6.101 2.098-.403 0-.79-.018-1.177-.067 2.18 1.405 4.762 2.208 7.548 2.208 8.683 0 14.342-7.244 13.986-14.637z"/>
		</symbol>
		<symbol id="icon-play" viewBox="0 0 1000 1000">
			<g transform="translate(0.000000,502.000000) scale(0.100000,-0.100000)">
			<path d="M4638.5,4912.1c-1226.2-97.8-2333.2-621.9-3187.8-1511.8c-367.7-381.4-616-739.3-860.5-1238c-228.8-465.5-371.6-927-451.8-1447.2c-50.8-326.6-50.8-1060-2-1378.8c82.1-535.8,228.8-1003.3,463.5-1476.6C1812.5-4596.6,4795-5588.2,7220-4342.4c948.5,487,1656.5,1194.9,2143.5,2143.5c530,1032.6,670.8,2186.5,406.8,3344.3c-111.5,492.8-389.2,1136.3-674.7,1564.6c-796,1196.9-2032,1973.3-3457.7,2170.8C5383.6,4916,4888.8,4931.7,4638.5,4912.1z M5401.2,4538.6c852.7-80.2,1636.9-383.3,2337.1-907.5c244.5-183.8,680.6-618,862.5-862.5c385.3-514.3,643.4-1044.3,788.2-1617.4c105.6-416.6,136.9-672.8,136.9-1130.4c0-598.4-88-1089.3-289.5-1609.6c-801.8-2071.1-2957-3266-5116.2-2837.8C2723.9-4150.7,1558.2-3253,922.6-1964.2C611.7-1334.5,463-693,463,20.8c0,512.4,70.4,954.4,228.8,1427.7C1352.9,3437.5,3324.3,4732.2,5401.2,4538.6z"/>
			<path d="M3598.1,2260.1c-33.2-13.7-70.4-43-82.1-66.5c-29.3-54.8-29.3-4290.8,0-4347.6c27.4-50.8,134.9-95.8,193.6-80.2c64.5,17.6,3463.6,2092.6,3504.7,2141.5c45,50.8,45,176,1.9,226.9c-19.6,21.5-752.9,477.2-1629.1,1011.1c-876.2,535.9-1646.7,1005.2-1711.3,1044.3C3731,2281.7,3678.2,2293.4,3598.1,2260.1z M5342.6,861.8C6085.7,410,6694,32.6,6697.9,24.8c3.9-11.7-1660.4-1038.5-2757.6-1701.5l-74.3-45V20.8v1744.5l64.5-39.1C3963.8,1704.7,4601.3,1315.5,5342.6,861.8z"/>
			</g>
		</symbol>
		<symbol id="location-arrow" viewBox="0 0 1000 1000">
			<path d="M523.9,989.8c-22.7,0-78.3-9.4-107.1-96.1l-77.7-233l-233-77.7C26.1,556.4,11.7,507.7,10.2,481c-1.5-26.6,7.3-76.7,83.6-112.2L824.5,27.8C890.8-3,948,7.9,975.4,51.1c14.4,22.5,25.4,62.3-3.4,124.2L630.9,905.9C596.9,978.8,549.2,989.8,523.9,989.8z M177.7,471.5l263,87.5L528.4,822l306.8-657.3L177.7,471.5L177.7,471.5z"/>
		</symbol>
		<symbol id="insta" viewBox="0 0 448 512">
			<path d="M224.1 141c-63.6 0-114.9 51.3-114.9 114.9s51.3 114.9 114.9 114.9S339 319.5 339 255.9 287.7 141 224.1 141zm0 189.6c-41.1 0-74.7-33.5-74.7-74.7s33.5-74.7 74.7-74.7 74.7 33.5 74.7 74.7-33.6 74.7-74.7 74.7zm146.4-194.3c0 14.9-12 26.8-26.8 26.8-14.9 0-26.8-12-26.8-26.8s12-26.8 26.8-26.8 26.8 12 26.8 26.8zm76.1 27.2c-1.7-35.9-9.9-67.7-36.2-93.9-26.2-26.2-58-34.4-93.9-36.2-37-2.1-147.9-2.1-184.9 0-35.8 1.7-67.6 9.9-93.9 36.1s-34.4 58-36.2 93.9c-2.1 37-2.1 147.9 0 184.9 1.7 35.9 9.9 67.7 36.2 93.9s58 34.4 93.9 36.2c37 2.1 147.9 2.1 184.9 0 35.9-1.7 67.7-9.9 93.9-36.2 26.2-26.2 34.4-58 36.2-93.9 2.1-37 2.1-147.8 0-184.8zM398.8 388c-7.8 19.6-22.9 34.7-42.6 42.6-29.5 11.7-99.5 9-132.1 9s-102.7 2.6-132.1-9c-19.6-7.8-34.7-22.9-42.6-42.6-11.7-29.5-9-99.5-9-132.1s-2.6-102.7 9-132.1c7.8-19.6 22.9-34.7 42.6-42.6 29.5-11.7 99.5-9 132.1-9s102.7-2.6 132.1 9c19.6 7.8 34.7 22.9 42.6 42.6 11.7 29.5 9 99.5 9 132.1s2.7 102.7-9 132.1z">
			</path>
		</symbol>
		<symbol id="facebook" viewBox="0 0 448 512">
			<path d="M400 32H48A48 48 0 0 0 0 80v352a48 48 0 0 0 48 48h137.25V327.69h-63V256h63v-54.64c0-62.15 37-96.48 93.67-96.48 27.14 0 55.52 4.84 55.52 4.84v61h-31.27c-30.81 0-40.42 19.12-40.42 38.73V256h68.78l-11 71.69h-57.78V480H400a48 48 0 0 0 48-48V80a48 48 0 0 0-48-48z">
			</path>
		</symbol>
		<symbol id="icon-clock" viewBox="0 0 1000 1000" >
			<g>
				<path d="M500,10C229.8,10,10,229.8,10,500c0,270.2,219.8,490,490,490c270.2,0,490-219.8,490-490C990,229.8,770.2,10,500,10z M500,919.8C268.5,919.8,80.2,731.5,80.2,500C80.2,268.5,268.5,80.2,500,80.2c231.5,0,419.8,188.3,419.8,419.8C919.8,731.5,731.5,919.8,500,919.8z"/>
				<path d="M752,491.8H521.7V240.1c0-19.4-15.7-35.1-35.1-35.1c-19.4,0-35.1,15.7-35.1,35.1v286.8c0,19.4,15.7,35.1,35.1,35.1H752c19.4,0,35.1-15.7,35.1-35.1S771.4,491.8,752,491.8z"/>
			</g>
		</symbol>
	</def>
</svg>